<svg width="56" height="56" viewBox="0 0 56 56" fill="none" xmlns="http://www.w3.org/2000/svg">
  <defs>
    <linearGradient id="g" x1="0" y1="0" x2="56" y2="56" gradientUnits="userSpaceOnUse">
      <stop stop-color="#E8C462"/>
      <stop offset="1" stop-color="#C9A64F"/>
    </linearGradient>
  </defs>
  <circle cx="28" cy="28" r="26" fill="url(#g)" opacity="0.18"/>
  <rect x="12" y="16" width="32" height="24" rx="4" stroke="#E8C462" stroke-width="2.5" fill="#FFFFFF"/>
  <path d="M16 34h24" stroke="#E8C462" stroke-width="2"/>
  <rect x="18" y="22" width="5" height="8" rx="1" fill="#E8C462"/>
  <rect x="26" y="24" width="5" height="6" rx="1" fill="#E8C462"/>
  <rect x="34" y="20" width="5" height="10" rx="1" fill="#E8C462"/>
  <path d="M19 40h18" stroke="#C9A64F" stroke-width="2" stroke-linecap="round"/>
  <g transform="translate(34,36)">
    <circle cx="8" cy="-6" r="7" fill="#FFFFFF" stroke="#E8C462" stroke-width="2"/>
    <path d="M8 -10a1.2 1.2 0 1 1 0 2.4 1.2 1.2 0 0 1 0-2.4zM7 -6h2v5H7z" fill="#333333"/>
  </g>
</svg>

